<?xml version="1.0" encoding="UTF-8"?>
<svg id="Layer_1" xmlns="http://www.w3.org/2000/svg" version="1.1" viewBox="0 0 22 22">
  <!-- Generator: Adobe Illustrator 30.1.0, SVG Export Plug-In . SVG Version: 2.1.1 Build 136)  -->
  <defs>
    <style>
      .st0 {
        stroke-linecap: round;
        stroke-miterlimit: 10;
        stroke-width: 2px;
      }

      .st0, .st1 {
        fill: none;
        stroke: #000;
      }
    </style>
  </defs>
  <rect class="st1" x="9.5" y="8.5" width="11" height="10" rx="1.5" ry="1.5"/>
  <line class="st1" x1="9" y1="11.5" x2="20" y2="11.5"/>
  <circle cx="11.5" cy="10" r=".5"/>
  <circle cx="13.5" cy="10" r=".5"/>
  <circle cx="15.5" cy="10" r=".5"/>
  <path id="star" d="M8.95,3.01c.13.94.66,1.47,1.6,1.6-.94.13-1.47.66-1.6,1.6-.13-.94-.66-1.47-1.6-1.6.94-.13,1.47-.66,1.6-1.6Z"/>
  <path id="star1" d="M5.49,1.77c.13.94.66,1.47,1.6,1.6-.94.13-1.47.66-1.6,1.6-.13-.94-.66-1.47-1.6-1.6.94-.13,1.47-.66,1.6-1.6Z"/>
  <path id="star2" d="M10.33.27c.09.71.49,1.11,1.2,1.2-.71.09-1.11.49-1.2,1.2-.09-.71-.49-1.11-1.2-1.2.71-.09,1.11-.49,1.2-1.2Z"/>
  <path id="star3" d="M12.83,5.36c.09.65.45,1.01,1.1,1.1-.65.09-1.01.45-1.1,1.1-.09-.65-.45-1.01-1.1-1.1.65-.09,1.01-.45,1.1-1.1Z"/>
  <path id="star4" d="M3.69,5.61c.07.53.37.83.9.9-.53.07-.83.37-.9.9-.07-.53-.37-.83-.9-.9.53-.07.83-.37.9-.9Z"/>
  <line class="st0" x1="7" y1="7" x2="2" y2="12"/>
</svg>