<?xml version="1.0" encoding="UTF-8"?>
<svg id="Layer_1" xmlns="http://www.w3.org/2000/svg" version="1.1" viewBox="0 0 528.71 206.96">
  <!-- Generator: Adobe Illustrator 30.2.1, SVG Export Plug-In . SVG Version: 2.1.1 Build 1)  -->
  <defs>
    <style>
      .st0 {
        font-size: 10px;
      }

      .st0, .st1, .st2, .st3, .st4, .st5, .st6, .st7, .st8 {
        isolation: isolate;
      }

      .st0, .st1, .st2, .st3, .st5 {
        font-family: HelveticaNeue-Medium, 'Helvetica Neue';
        font-weight: 500;
      }

      .st0, .st9 {
        fill: #999;
      }

      .st1 {
        font-size: 11px;
      }

      .st1, .st8 {
        fill: #4a9eff;
      }

      .st2 {
        font-size: 13px;
      }

      .st2, .st3 {
        fill: #888;
      }

      .st10 {
        fill: #2a2a35;
      }

      .st10, .st11, .st6, .st7 {
        stroke-width: 1.5px;
      }

      .st10, .st6, .st7 {
        stroke: #4a9eff;
      }

      .st3, .st5 {
        font-size: 9px;
      }

      .st12 {
        fill: #febc2e;
      }

      .st13 {
        fill: #383840;
      }

      .st14 {
        fill: #ff5f57;
      }

      .st15 {
        stroke: #999;
      }

      .st15, .st6 {
        fill: none;
      }

      .st5 {
        fill: #777;
      }

      .st11 {
        stroke: #333;
      }

      .st11, .st7 {
        fill: #1a1a1a;
      }

      .st16 {
        fill: #252530;
        stroke: #555;
      }

      .st6 {
        opacity: .5;
        stroke-dasharray: 4 3;
      }

      .st7 {
        opacity: .15;
      }

      .st8 {
        opacity: .8;
      }

      .st17 {
        fill: #333;
      }

      .st18 {
        fill: #28c840;
      }
    </style>
  </defs>
  <g>
    <g class="st4">
      <g class="st4">
        <text class="st2" transform="translate(71.76 30.09)"><tspan x="0" y="0">2 zones, one empty</tspan></text>
      </g>
    </g>
    <rect class="st11" x="10" y="48.09" width="240" height="150" rx="8" ry="8"/>
    <rect class="st6" x="18" y="56.09" width="112" height="134" rx="5" ry="5"/>
    <g class="st4">
      <g class="st4">
        <text class="st1" transform="translate(45.2 122.09)"><tspan x="0" y="0">empty</tspan></text>
      </g>
      <g class="st4">
        <text class="st1" transform="translate(78.73 122.09)"><tspan x="0" y="0">zone</tspan></text>
      </g>
    </g>
    <g class="st4">
      <g class="st4">
        <text class="st1" transform="translate(42.56 136.09)"><tspan x="0" y="0">(placeholder)</tspan></text>
      </g>
    </g>
    <rect class="st16" x="134" y="56.09" width="108" height="134" rx="5" ry="5"/>
    <rect class="st17" x="134" y="56.09" width="108" height="18" rx="5" ry="5"/>
    <rect class="st17" x="134" y="68.09" width="108" height="6"/>
    <circle class="st14" cx="144" cy="65.09" r="3"/>
    <circle class="st12" cx="153" cy="65.09" r="3"/>
    <circle class="st18" cx="162" cy="65.09" r="3"/>
    <g class="st4">
      <g class="st4">
        <text class="st5" transform="translate(172.77 126.09)"><tspan x="0" y="0">window</tspan></text>
      </g>
    </g>
    <path class="st8" d="M42,51.09h66c1.1,0,2,.9,2,2h0c0,1.1-.9,2-2,2H42c-1.1,0-2-.9-2-2h0c0-1.1.9-2,2-2Z"/>
  </g>
  <g>
    <g class="st4">
      <g class="st4">
        <text class="st2" transform="translate(330.59 30.09)"><tspan x="0" y="0">3 zones + floating zone</tspan></text>
      </g>
    </g>
    <rect class="st11" x="280" y="48.09" width="240" height="150" rx="8" ry="8"/>
    <rect class="st16" x="288" y="56.09" width="112" height="134" rx="5" ry="5"/>
    <rect class="st17" x="288" y="56.09" width="112" height="18" rx="5" ry="5"/>
    <rect class="st17" x="288" y="68.09" width="112" height="6"/>
    <circle class="st14" cx="298" cy="65.09" r="3"/>
    <circle class="st12" cx="307" cy="65.09" r="3"/>
    <circle class="st18" cx="316" cy="65.09" r="3"/>
    <rect class="st16" x="404" y="56.09" width="108" height="63" rx="5" ry="5"/>
    <rect class="st17" x="404" y="56.09" width="108" height="18" rx="5" ry="5"/>
    <rect class="st17" x="404" y="68.09" width="108" height="6"/>
    <circle class="st14" cx="414" cy="65.09" r="3"/>
    <circle class="st12" cx="423" cy="65.09" r="3"/>
    <circle class="st18" cx="432" cy="65.09" r="3"/>
    <rect class="st16" x="404" y="123.09" width="108" height="67" rx="5" ry="5"/>
    <rect class="st17" x="404" y="123.09" width="108" height="18" rx="5" ry="5"/>
    <rect class="st17" x="404" y="135.09" width="108" height="6"/>
    <circle class="st14" cx="414" cy="132.09" r="3"/>
    <circle class="st12" cx="423" cy="132.09" r="3"/>
    <circle class="st18" cx="432" cy="132.09" r="3"/>
    <rect class="st7" x="328" y="80.09" width="144" height="100" rx="6" ry="6"/>
    <rect class="st10" x="325" y="78.09" width="144" height="100" rx="6" ry="6"/>
    <rect class="st13" x="325" y="78.09" width="144" height="18" rx="6" ry="6"/>
    <rect class="st13" x="325" y="90.09" width="144" height="6"/>
    <circle class="st14" cx="335" cy="87.09" r="3"/>
    <circle class="st12" cx="344" cy="87.09" r="3"/>
    <circle class="st18" cx="353" cy="87.09" r="3"/>
    <g class="st4">
      <g class="st4">
        <text class="st3" transform="translate(353.93 131.09)"><tspan x="0" y="0">floating</tspan></text>
      </g>
      <g class="st4">
        <text class="st3" transform="translate(389.1 131.09)"><tspan x="0" y="0">zone</tspan></text>
      </g>
      <g class="st4">
        <text class="st3" transform="translate(412.48 131.09)"><tspan x="0" y="0">window</tspan></text>
      </g>
    </g>
  </g>
  <line class="st15" x1="49.38" y1="40.88" x2="54.69" y2="46.2"/>
  <polygon class="st9" points="52.57 48.32 57.52 49.03 56.81 44.08 52.57 48.32"/>
  <g class="st4">
    <g class="st4">
      <text class="st0" transform="translate(13.8 17.96)"><tspan x="0" y="0">targeted</tspan></text>
    </g>
    <g class="st4">
      <text class="st0" transform="translate(14.98 27.96)"><tspan x="0" y="0">for</tspan></text>
    </g>
    <g class="st4">
      <text class="st0" transform="translate(30.08 27.96)"><tspan x="0" y="0">next</tspan></text>
    </g>
    <g class="st4">
      <text class="st0" transform="translate(14.91 37.96)"><tspan x="0" y="0">window</tspan></text>
    </g>
  </g>
</svg>