<?xml version="1.0" encoding="UTF-8"?>
<svg id="Layer_1" xmlns="http://www.w3.org/2000/svg" version="1.1" viewBox="0 0 512.95 189.45">
  <!-- Generator: Adobe Illustrator 30.5.1, SVG Export Plug-In . SVG Version: 2.1.4 Build 3)  -->
  <defs>
    <style>
      .st0 {
        font-size: 10px;
      }

      .st0, .st1, .st2, .st3, .st4, .st5, .st6, .st7, .st8 {
        isolation: isolate;
      }

      .st0, .st1, .st2, .st3, .st5 {
        font-family: HelveticaNeue-Medium, 'Helvetica Neue';
        font-weight: 500;
      }

      .st0, .st9 {
        fill: #999;
      }

      .st1 {
        font-size: 11px;
      }

      .st1, .st8 {
        fill: #4a9eff;
      }

      .st2 {
        font-size: 13px;
      }

      .st2, .st3 {
        fill: #888;
      }

      .st10 {
        fill: #2a2a35;
      }

      .st10, .st11, .st6, .st7 {
        stroke-width: 1.5px;
      }

      .st10, .st6, .st7 {
        stroke: #4a9eff;
      }

      .st3, .st5 {
        font-size: 9px;
      }

      .st12 {
        fill: #febc2e;
      }

      .st13 {
        fill: #383840;
      }

      .st14 {
        fill: #ff5f57;
      }

      .st15 {
        stroke: #999;
      }

      .st15, .st6 {
        fill: none;
      }

      .st5 {
        fill: #777;
      }

      .st11 {
        stroke: #333;
      }

      .st11, .st7 {
        fill: #1a1a1a;
      }

      .st16 {
        fill: #252530;
        stroke: #555;
      }

      .st6 {
        opacity: .5;
        stroke-dasharray: 4 3;
      }

      .st7 {
        opacity: .15;
      }

      .st8 {
        opacity: .8;
      }

      .st17 {
        fill: #333;
      }

      .st18 {
        fill: #28c840;
      }
    </style>
  </defs>
  <g>
    <g class="st4">
      <g class="st4">
        <g class="st4">
          <text class="st2" transform="translate(63.96 20.7)"><tspan x="0" y="0">2 zones, one empty</tspan></text>
        </g>
      </g>
    </g>
    <rect class="st11" x="2.2" y="38.7" width="240" height="150" rx="8" ry="8"/>
    <rect class="st6" x="10.2" y="46.7" width="112" height="134" rx="5" ry="5"/>
    <g class="st4">
      <g class="st4">
        <g class="st4">
          <text class="st1" transform="translate(37.4 112.7)"><tspan x="0" y="0">empty</tspan></text>
        </g>
      </g>
      <g class="st4">
        <g class="st4">
          <text class="st1" transform="translate(70.93 112.7)"><tspan x="0" y="0">zone</tspan></text>
        </g>
      </g>
    </g>
    <g class="st4">
      <g class="st4">
        <g class="st4">
          <text class="st1" transform="translate(34.76 126.7)"><tspan x="0" y="0">(placeholder)</tspan></text>
        </g>
      </g>
    </g>
    <rect class="st16" x="126.2" y="46.7" width="108" height="134" rx="5" ry="5"/>
    <rect class="st17" x="126.2" y="46.7" width="108" height="18" rx="5" ry="5"/>
    <rect class="st17" x="126.2" y="58.7" width="108" height="6"/>
    <circle class="st14" cx="136.2" cy="55.7" r="3"/>
    <circle class="st12" cx="145.2" cy="55.7" r="3"/>
    <circle class="st18" cx="154.2" cy="55.7" r="3"/>
    <g class="st4">
      <g class="st4">
        <g class="st4">
          <text class="st5" transform="translate(164.97 116.7)"><tspan x="0" y="0">window</tspan></text>
        </g>
      </g>
    </g>
    <path class="st8" d="M34.2,41.7h66c1.1,0,2,.9,2,2h0c0,1.1-.9,2-2,2H34.2c-1.1,0-2-.9-2-2h0c0-1.1.9-2,2-2Z"/>
  </g>
  <g>
    <g class="st4">
      <g class="st4">
        <g class="st4">
          <text class="st2" transform="translate(322.79 20.7)"><tspan x="0" y="0">3 zones + floating zone</tspan></text>
        </g>
      </g>
    </g>
    <rect class="st11" x="272.2" y="38.7" width="240" height="150" rx="8" ry="8"/>
    <rect class="st16" x="280.2" y="46.7" width="112" height="134" rx="5" ry="5"/>
    <rect class="st17" x="280.2" y="46.7" width="112" height="18" rx="5" ry="5"/>
    <rect class="st17" x="280.2" y="58.7" width="112" height="6"/>
    <circle class="st14" cx="290.2" cy="55.7" r="3"/>
    <circle class="st12" cx="299.2" cy="55.7" r="3"/>
    <circle class="st18" cx="308.2" cy="55.7" r="3"/>
    <rect class="st16" x="396.2" y="46.7" width="108" height="63" rx="5" ry="5"/>
    <rect class="st17" x="396.2" y="46.7" width="108" height="18" rx="5" ry="5"/>
    <rect class="st17" x="396.2" y="58.7" width="108" height="6"/>
    <circle class="st14" cx="406.2" cy="55.7" r="3"/>
    <circle class="st12" cx="415.2" cy="55.7" r="3"/>
    <circle class="st18" cx="424.2" cy="55.7" r="3"/>
    <rect class="st16" x="396.2" y="113.7" width="108" height="67" rx="5" ry="5"/>
    <rect class="st17" x="396.2" y="113.7" width="108" height="18" rx="5" ry="5"/>
    <rect class="st17" x="396.2" y="125.7" width="108" height="6"/>
    <circle class="st14" cx="406.2" cy="122.7" r="3"/>
    <circle class="st12" cx="415.2" cy="122.7" r="3"/>
    <circle class="st18" cx="424.2" cy="122.7" r="3"/>
    <rect class="st7" x="320.2" y="70.7" width="144" height="100" rx="6" ry="6"/>
    <rect class="st10" x="317.2" y="68.7" width="144" height="100" rx="6" ry="6"/>
    <rect class="st13" x="317.2" y="68.7" width="144" height="18" rx="6" ry="6"/>
    <rect class="st13" x="317.2" y="80.7" width="144" height="6"/>
    <circle class="st14" cx="327.2" cy="77.7" r="3"/>
    <circle class="st12" cx="336.2" cy="77.7" r="3"/>
    <circle class="st18" cx="345.2" cy="77.7" r="3"/>
    <g class="st4">
      <g class="st4">
        <g class="st4">
          <text class="st3" transform="translate(346.13 121.7)"><tspan x="0" y="0">floating</tspan></text>
        </g>
      </g>
      <g class="st4">
        <g class="st4">
          <text class="st3" transform="translate(381.3 121.7)"><tspan x="0" y="0">zone</tspan></text>
        </g>
      </g>
      <g class="st4">
        <g class="st4">
          <text class="st3" transform="translate(404.68 121.7)"><tspan x="0" y="0">window</tspan></text>
        </g>
      </g>
    </g>
  </g>
  <line class="st15" x1="41.58" y1="31.49" x2="46.89" y2="36.81"/>
  <polygon class="st9" points="44.77 38.93 49.72 39.64 49.01 34.69 44.77 38.93"/>
  <g class="st4">
    <g class="st4">
      <g class="st4">
        <text class="st0" transform="translate(0 8.57)"><tspan x="0" y="0">destination</tspan></text>
      </g>
    </g>
    <g class="st4">
      <g class="st4">
        <text class="st0" transform="translate(7.18 18.57)"><tspan x="0" y="0">for</tspan></text>
      </g>
    </g>
    <g class="st4">
      <g class="st4">
        <text class="st0" transform="translate(22.28 18.57)"><tspan x="0" y="0">next</tspan></text>
      </g>
    </g>
    <g class="st4">
      <g class="st4">
        <text class="st0" transform="translate(7.11 28.57)"><tspan x="0" y="0">window</tspan></text>
      </g>
    </g>
  </g>
</svg>